<svg xmlns="http://www.w3.org/2000/svg" viewBox="0 0 24 24" width="24" height="24">
  <circle cx="12" cy="12" r="12" fill="#ffffff" />
  <circle cx="12" cy="12" r="11" fill="none" stroke="#000000" stroke-width="0.5" />
  <circle cx="12" cy="12" r="9" fill="#000000" />
  <circle cx="12" cy="12" r="8" fill="#ffffff" />
  <path d="M12 4L12 12L20 12A8 8 0 0 0 12 4" fill="#0066B1" />
  <path d="M12 4L12 12L4 12A8 8 0 0 1 12 4" fill="#ffffff" />
  <path d="M12 20L12 12L4 12A8 8 0 0 0 12 20" fill="#0066B1" />
  <path d="M12 20L12 12L20 12A8 8 0 0 1 12 20" fill="#ffffff" />
</svg> 